<?xml version="1.0" encoding="UTF-8" standalone="no"?><!DOCTYPE svg PUBLIC "-//W3C//DTD SVG 1.1//EN" "http://www.w3.org/Graphics/SVG/1.1/DTD/svg11.dtd"><svg width="100%" height="100%" viewBox="0 0 800 800" version="1.1" xmlns="http://www.w3.org/2000/svg" xmlns:xlink="http://www.w3.org/1999/xlink" xml:space="preserve" xmlns:serif="http://www.serif.com/" style="fill-rule:evenodd;clip-rule:evenodd;stroke-linejoin:round;stroke-miterlimit:2;"><g><path d="M220.594,88.966l47.631,52.392l0,246.24c0,4.005 2.222,7.716 5.762,9.596c3.565,1.879 7.861,1.661 11.182,-0.611l56.884,-38.525l56.861,38.525c3.345,2.27 7.642,2.49 11.206,0.611c3.516,-1.88 5.763,-5.591 5.763,-9.596l-0,-246.24l-47.656,-52.392l-147.633,-0Z" style="fill:#fff;fill-rule:nonzero;stroke:#000;stroke-width:1px;"/><path d="M681.262,145.85l-40.429,-97.755c14.356,-0.879 22.998,-12.743 22.998,-21.997c0,-14.428 -11.67,-26.098 -26.075,-26.098l-466.698,0c-27.174,0 -52.003,11.084 -69.752,28.906c-17.822,17.749 -28.931,42.578 -28.906,69.727l-0,636.914c-0,35.595 28.858,64.453 64.453,64.453l536.499,0c29.981,0 54.248,-24.292 54.248,-54.272l-0,-546.387c-0,-27.271 -20.117,-49.585 -46.338,-53.491Zm-227.1,-0.781l0,242.529c0,18.238 -10.009,34.888 -26.123,43.433c-7.08,3.736 -15.039,5.738 -23.047,5.738c-9.864,-0 -19.409,-2.93 -27.564,-8.497l-35.376,-23.975l-35.4,23.975c-8.155,5.567 -17.677,8.497 -27.565,8.497c-7.982,-0 -15.967,-2.002 -23.046,-5.763c-16.089,-8.52 -26.099,-25.17 -26.099,-43.408l0,-231.445l-10.108,-11.084l-48.779,-0c-12.916,-0 -24.366,-5.177 -32.838,-13.599c-8.447,-8.52 -13.623,-19.947 -13.623,-32.837c-0,-12.891 5.176,-24.341 13.623,-32.813c8.472,-8.447 19.922,-13.623 32.838,-13.623l428.273,-0l41.7,92.872l-186.866,-0Z" style="fill:#fff;fill-rule:nonzero;"/></g></svg>