<?xml version="1.0" encoding="UTF-8" standalone="no"?><!DOCTYPE svg PUBLIC "-//W3C//DTD SVG 1.1//EN" "http://www.w3.org/Graphics/SVG/1.1/DTD/svg11.dtd"><svg width="100%" height="100%" viewBox="0 0 800 800" version="1.1" xmlns="http://www.w3.org/2000/svg" xmlns:xlink="http://www.w3.org/1999/xlink" xml:space="preserve" xmlns:serif="http://www.serif.com/" style="fill-rule:evenodd;clip-rule:evenodd;stroke-linejoin:round;stroke-miterlimit:2;"><g><path d="M763.774,88.379c7.281,-5.149 9.006,-15.229 3.854,-22.51c-5.152,-7.281 -15.226,-9.009 -22.51,-3.855l-40.331,28.537c-7.28,5.149 -9.006,15.229 -3.854,22.51c3.146,4.446 8.134,6.823 13.194,6.823c3.225,-0 6.482,-0.964 9.316,-2.972l40.331,-28.533Z" style="fill:#fcfcfc;fill-rule:nonzero;"/><path d="M656.923,79.098c1.87,0.705 3.792,1.039 5.679,1.039c6.535,0 12.685,-3.994 15.119,-10.473l17.387,-46.247c3.139,-8.347 -1.084,-17.66 -9.434,-20.798c-8.346,-3.141 -17.662,1.087 -20.8,9.434l-17.388,46.247c-3.136,8.347 1.087,17.66 9.437,20.798Z" style="fill:#fff;fill-rule:nonzero;"/><path d="M592.115,61.564c1.597,0.127 3.164,-0.025 4.641,-0.409c5.116,-1.331 9.184,-5.456 9.877,-10.611l4.961,-36.801c0.896,-6.642 -4.153,-12.479 -11.277,-13.036c-7.122,-0.559 -13.624,4.379 -14.52,11.021l-4.961,36.801c-0.893,6.641 4.155,12.479 11.279,13.035Z" style="fill:#fff;fill-rule:nonzero;"/><path d="M783.856,149.683l-0.334,-0l-49.394,0.414c-8.917,0.18 -15.998,7.012 -15.818,15.929c0.178,8.804 7.372,15.956 16.141,15.956l0.334,-0l49.394,-0.843c8.917,-0.183 15.999,-7.353 15.818,-16.27c-0.177,-8.805 -7.372,-15.186 -16.141,-15.186Z" style="fill:#fff;fill-rule:nonzero;"/><path d="M780.064,221.297c-0.101,-0.045 -0.202,-0.089 -0.306,-0.134l-45.419,-19.415c-8.243,-3.409 -17.468,0.012 -20.877,8.254c-3.365,8.137 0.36,17.573 8.394,21.087c0.101,0.044 0.203,0.089 0.306,0.134l45.591,19.023c8.243,3.406 17.605,-0.325 21.014,-8.567c3.365,-8.138 -0.669,-16.868 -8.703,-20.382Z" style="fill:#fff;fill-rule:nonzero;"/><path d="M684.205,396.08c-8.272,-6.549 -18.064,-11.006 -28.416,-13.1c0.684,-1.238 1.322,-2.498 1.925,-3.777l6.481,-6.481c24.962,-24.965 27.584,-64.259 6.094,-91.409c-10.145,-12.815 -24.227,-21.331 -39.868,-24.51c1.117,-2.057 2.108,-4.159 3.007,-6.293c17,-24.626 16.723,-57.721 -2.105,-81.51c-10.148,-12.823 -24.235,-21.366 -39.884,-24.539c12.919,-23.756 11.269,-53.364 -5.989,-75.163c-13.049,-16.486 -32.593,-25.944 -53.625,-25.944c-16.841,-0 -32.73,6.018 -45.197,17.037c-1.887,-10.709 -6.36,-21.053 -13.491,-30.062c-13.051,-16.486 -32.595,-25.942 -53.627,-25.944c-18.276,-0 -35.432,7.092 -48.306,19.966l-163.757,163.757l-0.624,-21.856c-0.288,-37.225 -30.663,-67.422 -67.955,-67.422c-36.617,0 -66.561,29.11 -67.907,65.401l-32.692,237.684l-26.87,31.233c-16.104,18.726 -15.025,47.052 2.463,64.497l39.935,39.867c-12.311,18.521 -10.155,43.782 5.938,59.835l187.515,187.219c8.961,8.939 20.855,13.857 33.5,13.857c10.382,-0 20.639,-3.486 28.878,-9.811l39.147,-30.06c37.658,-8.896 79.176,-29.104 123.474,-60.103c38.681,-27.072 80.646,-63.145 124.721,-107.223l93.213,-93.213c13.746,-13.746 20.981,-32.805 19.85,-52.289c-1.13,-19.453 -10.543,-37.546 -25.828,-49.644Zm-177.85,-309.925c7.006,-7.003 16.235,-10.505 25.467,-10.505c10.538,0 21.078,4.562 28.303,13.69c11.455,14.472 9.447,35.475 -3.604,48.524l-16.626,16.623c-2.563,1.709 -5.058,3.537 -7.394,5.607c-1.887,-10.713 -6.363,-21.057 -13.493,-30.063c-8.767,-11.073 -20.467,-18.957 -33.578,-22.951l20.925,-20.925Zm-112.313,-38.966c7.004,-7.003 16.236,-10.505 25.468,-10.505c10.54,0.003 21.078,4.565 28.302,13.692c11.456,14.473 9.448,35.473 -3.604,48.521l-190.885,188.913l-0.628,-21.853c-0.164,-21.062 -9.958,-39.868 -25.182,-52.231l166.529,-166.537Zm-357.372,427.585c-5.604,-5.593 -5.945,-14.562 -0.783,-20.564l33.056,-38.428c0.016,-0.019 0.029,-0.046 0.032,-0.07l34.237,-248.927c0,-19.611 16.045,-35.656 35.656,-35.656c19.611,0 35.658,16.045 35.658,35.656l0.929,32.393c-32.267,4.431 -57.391,31.581 -58.623,64.752l-32.69,237.687l-9.509,11.057l-37.963,-37.9Zm630.672,0.398l-93.21,93.213c-79.61,79.61 -162.826,143.511 -235.927,159.442c-2.221,0.488 -4.309,1.422 -6.113,2.808l-42.137,32.358c-2.729,2.097 -5.972,3.128 -9.202,3.128c-3.884,-0 -7.752,-1.494 -10.681,-4.417l-187.526,-187.228c-5.607,-5.59 -5.948,-14.559 -0.783,-20.564l33.053,-38.425c0.018,-0.021 0.029,-0.046 0.035,-0.07l34.234,-248.927c0,-19.611 16.047,-35.658 35.658,-35.658c19.611,-0 35.656,16.047 35.656,35.658l1.685,58.741c0.28,9.76 8.309,16.115 16.664,16.115c4.075,0 8.231,-1.515 11.598,-4.88l189.572,-189.572c7.006,-7.006 16.233,-10.505 25.468,-10.505c10.537,-0 21.078,4.562 28.302,13.689c11.455,14.473 9.445,35.476 -3.607,48.524l-130.591,130.591c-6.78,6.783 -6.78,17.773 0,24.551c3.432,3.431 7.93,5.149 12.427,5.149c4.498,-0 8.998,-1.718 12.427,-5.149l167.886,-167.884c7.004,-7.006 16.233,-10.505 25.468,-10.505c10.538,0.003 21.078,4.565 28.302,13.692c11.456,14.47 9.445,35.473 -3.606,48.522l-167.098,167.097c-6.871,6.874 -6.871,18.012 0,24.886c3.386,3.386 7.822,5.079 12.263,5.079c4.436,0 8.874,-1.693 12.26,-5.079l131.38,-131.377c7.006,-7.006 16.236,-10.505 25.468,-10.505c10.538,0 21.078,4.562 28.302,13.692c11.456,14.47 9.445,35.473 -3.607,48.522l-130.136,130.139c-7.03,7.027 -7.03,18.429 0,25.457l0.21,0.212c3.249,3.249 7.507,4.872 11.763,4.872c4.258,0 8.516,-1.623 11.762,-4.872l80.678,-80.678c7.27,-7.27 17.003,-11.113 26.703,-11.113c7.717,-0 15.412,2.433 21.821,7.507c17.119,13.549 18.179,38.767 3.179,53.764Z" style="fill:#fff;fill-rule:nonzero;"/></g></svg>