<?xml version="1.0" encoding="UTF-8" standalone="no"?><!DOCTYPE svg PUBLIC "-//W3C//DTD SVG 1.1//EN" "http://www.w3.org/Graphics/SVG/1.1/DTD/svg11.dtd"><svg width="100%" height="100%" viewBox="0 0 800 800" version="1.1" xmlns="http://www.w3.org/2000/svg" xmlns:xlink="http://www.w3.org/1999/xlink" xml:space="preserve" xmlns:serif="http://www.serif.com/" style="fill-rule:evenodd;clip-rule:evenodd;stroke-linecap:round;"><path d="M733.333,733.333l-666.666,0" style="fill:none;fill-rule:nonzero;stroke:#fff;stroke-width:50px;"/><path d="M66.667,366.667l270.863,-216.69c36.523,-29.217 88.417,-29.217 124.94,-0l270.863,216.69" style="fill:none;fill-rule:nonzero;stroke:#fff;stroke-width:50px;"/><path d="M516.667,183.333l0,-66.666c0,-9.205 7.463,-16.667 16.666,-16.667l83.334,0c9.203,0 16.666,7.462 16.666,16.667l0,166.666" style="fill:none;fill-rule:nonzero;stroke:#fff;stroke-width:50px;"/><path d="M133.333,733.333l0,-416.666" style="fill:none;fill-rule:nonzero;stroke:#fbfcff;stroke-width:50px;"/><path d="M666.667,733.333l0,-416.666" style="fill:none;fill-rule:nonzero;stroke:#fff;stroke-width:50px;"/><path d="M500,733.333l0,-166.666c0,-47.14 0,-70.71 -14.643,-85.357c-14.647,-14.643 -38.217,-14.643 -85.357,-14.643c-47.14,0 -70.711,0 -85.355,14.643c-14.645,14.647 -14.645,38.217 -14.645,85.357l0,166.666" style="fill:none;fill-rule:nonzero;stroke:#fff;stroke-width:50px;stroke-linecap:butt;"/><path d="M466.667,316.667c-0,36.82 -29.847,66.666 -66.667,66.666c-36.82,-0 -66.667,-29.846 -66.667,-66.666c0,-36.819 29.847,-66.667 66.667,-66.667c36.82,-0 66.667,29.848 66.667,66.667Z" style="fill:none;fill-rule:nonzero;stroke:#fff;stroke-width:50px;stroke-linecap:butt;"/></svg>