<?xml version="1.0" encoding="UTF-8" standalone="no"?><!DOCTYPE svg PUBLIC "-//W3C//DTD SVG 1.1//EN" "http://www.w3.org/Graphics/SVG/1.1/DTD/svg11.dtd"><svg width="100%" height="100%" viewBox="0 0 800 800" version="1.1" xmlns="http://www.w3.org/2000/svg" xmlns:xlink="http://www.w3.org/1999/xlink" xml:space="preserve" xmlns:serif="http://www.serif.com/" style="fill-rule:evenodd;clip-rule:evenodd;stroke-linejoin:round;stroke-miterlimit:2;"><path d="M300,700l99.967,-100l-0,50c138.1,0 250.033,-111.967 250.033,-250.067c0,-69.133 -28.067,-131.733 -73.4,-176.966l70.467,-70.8c63.6,63.366 102.933,151.033 102.933,247.9c0,193.266 -156.667,349.933 -349.933,349.933l-0.067,0l0,50l-100,-100Zm-250,-300c0.233,-193.2 156.8,-349.767 349.967,-350l0.033,0l0,-50l100,100l-100,100l0,-50l-0.067,0c-138.1,0 -250.066,111.967 -250.066,250.067c-0,69.133 28.066,131.733 73.433,177l-70.4,70.8c-63.567,-63 -102.933,-150.367 -102.933,-246.9l-0,-1l-0,0.066l0.033,-0.033Z" style="fill:#fffcfc;fill-rule:nonzero;stroke:#000;stroke-width:1px;"/></svg>