<?xml version="1.0" encoding="UTF-8" standalone="no"?><!DOCTYPE svg PUBLIC "-//W3C//DTD SVG 1.1//EN" "http://www.w3.org/Graphics/SVG/1.1/DTD/svg11.dtd"><svg width="100%" height="100%" viewBox="0 0 24 24" version="1.1" xmlns="http://www.w3.org/2000/svg" xmlns:xlink="http://www.w3.org/1999/xlink" xml:space="preserve" xmlns:serif="http://www.serif.com/" style="fill-rule:evenodd;clip-rule:evenodd;stroke-linejoin:round;stroke-miterlimit:2;"><path d="M20.05,11l-16.1,0c-0.525,0 -0.95,0.425 -0.95,0.95l0,0.1c0,0.525 0.425,0.95 0.95,0.95l16.1,0c0.525,0 0.95,-0.425 0.95,-0.95l0,-0.1c0,-0.525 -0.425,-0.95 -0.95,-0.95Z" style="fill:#fff;fill-rule:nonzero;stroke:#000;stroke-width:0.25px;"/><path d="M20.05,16l-16.1,0c-0.525,0 -0.95,0.425 -0.95,0.95l0,0.1c0,0.525 0.425,0.95 0.95,0.95l16.1,0c0.525,0 0.95,-0.425 0.95,-0.95l0,-0.1c0,-0.525 -0.425,-0.95 -0.95,-0.95Z" style="fill:#fff;fill-rule:nonzero;stroke:#000;stroke-width:0.25px;"/><path d="M20.05,6l-16.1,0c-0.525,0 -0.95,0.425 -0.95,0.95l0,0.1c0,0.525 0.425,0.95 0.95,0.95l16.1,0c0.525,0 0.95,-0.425 0.95,-0.95l0,-0.1c0,-0.525 -0.425,-0.95 -0.95,-0.95Z" style="fill:#fff;fill-rule:nonzero;stroke:#000;stroke-width:0.25px;"/></svg>