<?xml version="1.0" encoding="UTF-8" standalone="no"?><!DOCTYPE svg PUBLIC "-//W3C//DTD SVG 1.1//EN" "http://www.w3.org/Graphics/SVG/1.1/DTD/svg11.dtd"><svg width="100%" height="100%" viewBox="0 0 800 800" version="1.1" xmlns="http://www.w3.org/2000/svg" xmlns:xlink="http://www.w3.org/1999/xlink" xml:space="preserve" xmlns:serif="http://www.serif.com/" style="fill-rule:evenodd;clip-rule:evenodd;stroke-linejoin:round;stroke-miterlimit:2;"><path d="M309.763,43.096c6.251,-6.251 14.73,-9.763 23.57,-9.763l266.667,0c55.23,0 100,44.772 100,100l0,100c0,18.41 -14.923,33.334 -33.333,33.334c-18.41,-0 -33.334,-14.924 -33.334,-33.334l0,-100c0,-18.409 -14.923,-33.333 -33.333,-33.333l-233.333,-0l-0,166.667c-0,18.409 -14.924,33.333 -33.334,33.333l-166.666,0l-0,366.667c-0,18.41 14.924,33.333 33.333,33.333l166.667,0c18.41,0 33.333,14.923 33.333,33.333c-0,18.41 -14.923,33.334 -33.333,33.334l-166.667,-0c-55.228,-0 -100,-44.77 -100,-100l-0,-400c-0,-8.841 3.512,-17.319 9.763,-23.571l200,-200Zm-95.956,190.237l86.193,0l-0,-86.193l-86.193,86.193Zm394.526,458.334c0,23.013 -18.653,41.666 -41.666,41.666c-23.014,0 -41.667,-18.653 -41.667,-41.666c0,-23.014 18.653,-41.667 41.667,-41.667c23.013,0 41.666,18.653 41.666,41.667Zm-103.823,-259.524c8.82,-16.823 31.593,-32.143 62.157,-32.143c42.766,0 66.666,27.817 66.666,50c0,22.183 -23.9,50 -66.666,50c-18.41,0 -33.334,14.923 -33.334,33.333l0,33.334c0,18.41 14.924,33.333 33.334,33.333c18.41,0 33.333,-14.923 33.333,-33.333l-0,-3.78c54.387,-12.437 100,-54.65 100,-112.887c-0,-69.867 -65.643,-116.667 -133.333,-116.667c-51.447,0 -99.16,25.817 -121.2,67.857c-8.55,16.303 -2.26,36.45 14.043,45c16.303,8.547 36.45,2.26 45,-14.047Z" style="fill:#fff8f8;"/></svg>