<?xml version="1.0" encoding="UTF-8" standalone="no"?><!DOCTYPE svg PUBLIC "-//W3C//DTD SVG 1.1//EN" "http://www.w3.org/Graphics/SVG/1.1/DTD/svg11.dtd"><svg width="100%" height="100%" viewBox="0 0 800 800" version="1.1" xmlns="http://www.w3.org/2000/svg" xmlns:xlink="http://www.w3.org/1999/xlink" xml:space="preserve" xmlns:serif="http://www.serif.com/" style="fill-rule:evenodd;clip-rule:evenodd;stroke-miterlimit:10;"><path d="M50,622.667l222.667,-0c69.853,-0 127.333,57.48 127.333,127.333l-350,0l0,-127.333Z" style="fill:none;fill-rule:nonzero;stroke:#fff;stroke-width:30.89px;"/><path d="M527.333,622.667l222.667,-0l0,127.333l-350,0c0,-69.853 57.48,-127.333 127.333,-127.333Z" style="fill:none;fill-rule:nonzero;stroke:#fff;stroke-width:30.89px;"/><path d="M50,209l222.667,0c69.853,0 127.333,57.48 127.333,127.333l0,413.667l-350,0l0,-541Z" style="fill:none;fill-rule:nonzero;stroke:#fff;stroke-width:63.67px;"/><path d="M654.667,209l95.333,0l0,541l-350,0l0,-413.667c0,-69.853 57.48,-127.333 127.333,-127.333" style="fill:none;fill-rule:nonzero;stroke:#fff;stroke-width:63.67px;"/><path d="M654.667,433.333l-63.667,63.667l-63.667,-63.667l0,-319.666c-0,-0.112 -0.001,-0.223 -0.001,-0.335c0,-34.743 28.59,-63.333 63.334,-63.333c0.111,0 0.223,0 0.334,0.001c34.927,0 63.667,28.74 63.667,63.667l-0,319.666Z" style="fill:none;fill-rule:nonzero;stroke:#fff;stroke-width:34.91px;"/></svg>