<?xml version="1.0" encoding="UTF-8" standalone="no"?><!DOCTYPE svg PUBLIC "-//W3C//DTD SVG 1.1//EN" "http://www.w3.org/Graphics/SVG/1.1/DTD/svg11.dtd"><svg width="100%" height="100%" viewBox="0 0 800 800" version="1.1" xmlns="http://www.w3.org/2000/svg" xmlns:xlink="http://www.w3.org/1999/xlink" xml:space="preserve" xmlns:serif="http://www.serif.com/" style="fill-rule:evenodd;clip-rule:evenodd;stroke-linejoin:round;stroke-miterlimit:2;"><path d="M150,100l0,229.3l350,350l229.3,-229.3l-350,-350l-229.3,0Zm-50,0c0,-27.429 22.571,-50 50,-50l229.3,0c13.255,0.003 25.979,5.276 35.35,14.65l350,350c19.388,19.394 19.388,51.306 0,70.7l-229.3,229.3c-19.394,19.388 -51.306,19.388 -70.7,0l-350,-350c-9.374,-9.371 -14.647,-22.095 -14.65,-35.35l0,-229.3Z" style="fill:#fff;fill-rule:nonzero;"/><path d="M275,250c-13.715,0 -25,-11.285 -25,-25c0,-13.715 11.285,-25 25,-25c13.715,0 25,11.285 25,25c0,13.715 -11.285,25 -25,25Zm0,50c41.144,0 75,-33.856 75,-75c0,-41.144 -33.856,-75 -75,-75c-41.144,0 -75,33.856 -75,75c0,41.144 33.856,75 75,75Zm-225,54.3c0.003,13.255 5.276,25.979 14.65,35.35l372.85,372.85l-2.15,2.15c-19.394,19.388 -51.306,19.388 -70.7,0l-350,-350c-9.374,-9.371 -14.647,-22.095 -14.65,-35.35l-0,-229.3c-0,-27.429 22.571,-50 50,-50l-0,254.3Z" style="fill:#fff;fill-rule:nonzero;"/></svg>