<?xml version="1.0" encoding="UTF-8" standalone="no"?><!DOCTYPE svg PUBLIC "-//W3C//DTD SVG 1.1//EN" "http://www.w3.org/Graphics/SVG/1.1/DTD/svg11.dtd"><svg width="100%" height="100%" viewBox="0 0 3334 3334" version="1.1" xmlns="http://www.w3.org/2000/svg" xmlns:xlink="http://www.w3.org/1999/xlink" xml:space="preserve" xmlns:serif="http://www.serif.com/" style="fill-rule:evenodd;clip-rule:evenodd;stroke-linejoin:round;stroke-miterlimit:2;"><g><path d="M3197.72,3050.42l-77.146,-227.266c-134.775,-396.754 -483.003,-676.225 -890.497,-729.631c-151.172,166.361 -347.946,267.904 -563.482,267.904c-215.487,0 -412.212,-101.543 -563.384,-267.904c-407.445,53.406 -755.673,332.877 -890.448,729.631l-77.146,227.266c-22.208,65.353 -11.567,137.401 28.677,193.547c40.193,56.103 104.996,89.369 174.029,89.369l2656.68,0c69.04,0 133.843,-33.273 174.03,-89.369c40.25,-56.146 50.892,-128.194 28.683,-193.547Z" style="fill:#f5f5f5;fill-opacity:0.31;fill-rule:nonzero;stroke:#fff;stroke-width:104.17px;"/><path d="M1666.59,2192.99c376.134,-0 681.478,-399.388 691.788,-896.966l-1383.42,0c10.31,497.578 315.654,896.966 691.634,896.966Z" style="fill:#f5f5f5;fill-opacity:0.31;fill-rule:nonzero;stroke:#fff;stroke-width:104.17px;"/><path d="M820.067,1075.43c22.483,11.086 47.375,17.879 74.131,17.879l1545,0c26.7,0 51.655,-6.793 74.082,-17.879c55.708,-27.413 94.362,-84.222 94.362,-150.564c-0,-93.042 -75.395,-168.437 -168.437,-168.437l-30.922,-0c-4.816,-24.404 -10.521,-48.519 -16.608,-72.542c-45.949,-180.992 -128.914,-349.372 -245.583,-475.377l-0,122.333c-0,62.006 -50.285,112.291 -112.291,112.291c-62.021,-0 -112.291,-50.285 -112.291,-112.291l-0,-287.916c-44.706,-20.062 -92.569,-33.945 -142.585,-42.927l-0,453.281c-0,62.007 -50.27,112.291 -112.291,112.291c-62.007,0 -112.291,-50.284 -112.291,-112.291l-0,-453.281c-50.002,8.982 -97.815,22.865 -142.5,42.87l-0,287.973c-0,62.006 -50.285,112.291 -112.291,112.291c-62.007,-0 -112.291,-50.285 -112.291,-112.291l-0,-122.326c-116.627,125.948 -199.535,294.215 -245.47,475.108c-6.144,24.122 -11.849,48.301 -16.672,72.811l-30.922,-0c-93.049,-0 -168.437,75.395 -168.437,168.437c-0.007,66.285 38.647,123.095 94.306,150.557Z" style="fill:#f5f5f5;fill-opacity:0.31;fill-rule:nonzero;stroke:#fff;stroke-width:104.17px;"/></g></svg>