<?xml version="1.0" encoding="UTF-8" standalone="no"?><!DOCTYPE svg PUBLIC "-//W3C//DTD SVG 1.1//EN" "http://www.w3.org/Graphics/SVG/1.1/DTD/svg11.dtd"><svg width="100%" height="100%" viewBox="0 0 800 800" version="1.1" xmlns="http://www.w3.org/2000/svg" xmlns:xlink="http://www.w3.org/1999/xlink" xml:space="preserve" xmlns:serif="http://www.serif.com/" style="fill-rule:evenodd;clip-rule:evenodd;stroke-linejoin:round;stroke-miterlimit:2;"><path d="M400,535.4c-125.875,0.55 -231.075,88.425 -258.15,206.175l-0.35,1.8c-0.45,2 -0.725,4.3 -0.725,6.65c-0,17.25 14,31.25 31.25,31.25c14.9,0 27.375,-10.45 30.5,-24.4l0.05,-0.2c20.625,-91.45 101.175,-158.75 197.425,-158.75c96.25,0 176.825,67.3 197.175,157.425l0.25,1.35c3.175,14.15 15.625,24.55 30.525,24.55c17.25,0 31.25,-13.975 31.25,-31.25c0,-2.375 -0.275,-4.675 -0.775,-6.9l0.05,0.2c-27.45,-119.5 -132.625,-207.375 -258.425,-207.9l-0.05,-0Zm-170.9,-257.85c71.45,0 129.4,-57.925 129.4,-129.4c0,-71.475 -57.925,-129.4 -129.4,-129.4c-71.45,0 -129.4,57.925 -129.4,129.4c0.1,71.425 57.975,129.3 129.375,129.4l0.025,0Zm0,-196.3c36.95,0 66.9,29.95 66.9,66.9c0,36.95 -29.95,66.9 -66.9,66.9c-36.95,0 -66.9,-29.95 -66.9,-66.9c0.05,-36.925 29.975,-66.85 66.9,-66.9Zm344.05,196.3c71.45,0 129.4,-57.925 129.4,-129.4c0,-71.475 -57.925,-129.4 -129.4,-129.4c-71.45,0 -129.4,57.925 -129.4,129.4c0.1,71.425 57.975,129.3 129.375,129.4l0.025,0Zm0,-196.3c36.95,0 66.9,29.95 66.9,66.9c0,36.95 -29.95,66.9 -66.9,66.9c-36.95,0 -66.9,-29.95 -66.9,-66.9c0.05,-36.925 29.975,-66.85 66.9,-66.9Zm209.625,412.1c-21.6,-102.775 -111.5,-178.85 -219.175,-178.85c-9.875,0 -19.6,0.65 -29.125,1.875l1.125,-0.125c-23.25,-52.9 -75.175,-89.2 -135.6,-89.2c-60.35,0 -112.25,36.2 -135.175,88.1l-0.375,0.95c-6.65,-0.85 -14.5,-1.425 -22.45,-1.575l-0.225,0c-108.25,0.475 -198.7,76.025 -222.025,177.25l-0.3,1.55c-0.45,2 -0.725,4.325 -0.725,6.7c0,17.275 14,31.275 31.275,31.275c14.9,0 27.35,-10.425 30.5,-24.375l0.05,-0.2c17.1,-74.525 82.725,-129.35 161.2,-129.65l0.025,0c3.6,0 7.05,0.5 10.575,0.725c1.4,80.45 66.975,145.125 147.625,145.125c80.6,0 146.125,-64.6 147.625,-144.85l0,-0.15c4.275,-0.325 8.475,-0.875 12.85,-0.875c78.5,0.3 144.125,55.1 161.05,128.5l0.225,1.125c3.15,14.175 15.625,24.6 30.525,24.6c17.25,0 31.225,-13.975 31.225,-31.225c0,-2.35 -0.25,-4.65 -0.75,-6.85l0.05,0.2l0,-0.05Zm-382.775,-32.95l-0.025,0c-47.175,0 -85.425,-38.25 -85.425,-85.425c0,-47.175 38.25,-85.425 85.425,-85.425c47.175,0 85.425,38.25 85.425,85.425l0,0.025c-0.075,47.15 -38.25,85.325 -85.4,85.4Z" style="fill:#fff;fill-rule:nonzero;"/></svg>