<?xml version="1.0" encoding="UTF-8" standalone="no"?><!DOCTYPE svg PUBLIC "-//W3C//DTD SVG 1.1//EN" "http://www.w3.org/Graphics/SVG/1.1/DTD/svg11.dtd"><svg width="100%" height="100%" viewBox="0 0 800 800" version="1.1" xmlns="http://www.w3.org/2000/svg" xmlns:xlink="http://www.w3.org/1999/xlink" xml:space="preserve" xmlns:serif="http://www.serif.com/" style="fill-rule:evenodd;clip-rule:evenodd;stroke-linejoin:round;stroke-miterlimit:2;"><g><g><path d="M400,0c-132.547,0 -240,134.32 -240,300c0,165.68 107.453,300 240,300c132.547,0 240,-134.32 240,-300c0,-165.68 -107.453,-300 -240,-300Zm0,560c-110.28,0 -200,-116.641 -200,-260c0,-143.359 89.72,-260 200,-260c110.28,0 200,116.641 200,260c0,143.359 -89.72,260 -200,260Z" style="fill:#fff;fill-rule:nonzero;"/></g></g><g><g><path d="M574.706,565.253c-10.733,10.441 -22.159,19.827 -34.093,28.28c38.106,17.706 71.532,32.426 100.079,44.894c105.933,46.226 119.306,55.373 119.306,81.573c0,18.12 -17.84,40 -40,40l-639.998,0c-22.159,0 -40,-21.88 -40,-40c0,-26.2 13.373,-35.347 119.294,-81.573c28.559,-12.468 61.986,-27.186 100.079,-44.894c-11.932,-8.453 -23.359,-17.841 -34.093,-28.28c-166.533,76.214 -225.28,86.427 -225.28,154.747c0,40 35.814,80 80,80l640,0c44.186,0 80,-40 80,-80c0,-68.32 -58.747,-78.533 -225.294,-154.747Z" style="fill:#fff;fill-rule:nonzero;"/></g></g></svg>